<?xml version="1.0" encoding="utf-8"?>
<!-- Generator: Adobe Illustrator 21.1.0, SVG Export Plug-In . SVG Version: 6.00 Build 0)  -->
<svg version="1.1" id="Layer_1" xmlns="http://www.w3.org/2000/svg" xmlns:xlink="http://www.w3.org/1999/xlink" x="0px" y="0px"
	 viewBox="0 0 792 612" style="enable-background:new 0 0 792 612;" xml:space="preserve">
<style type="text/css">
	.st0{fill:#FF0000;}
	.st1{fill:#FFFFFF;}
	.st2{fill:#FFFFFF;stroke:#000000;stroke-width:0.2835;stroke-miterlimit:10;}
</style>
<g>
	<path class="st0" d="M231.9,134.3l6.3,15.7l6.4-15.7h3.7l-10.2,24.4l-10-24.4H231.9z"/>
	<path class="st0" d="M250.5,136.7c0-0.6,0.2-1.1,0.6-1.5c0.4-0.4,0.9-0.6,1.5-0.6c0.6,0,1.1,0.2,1.5,0.6c0.4,0.4,0.6,0.9,0.6,1.5
		c0,0.6-0.2,1.1-0.6,1.5c-0.4,0.4-0.9,0.6-1.5,0.6s-1.1-0.2-1.5-0.6C250.8,137.9,250.5,137.3,250.5,136.7z M254.3,142.7V157H251
		v-14.3H254.3z"/>
	<path class="st0" d="M267.2,145.1l-2.7,1.5c-0.4-0.9-1-1.3-1.6-1.3c-0.3,0-0.6,0.1-0.8,0.3c-0.2,0.2-0.3,0.5-0.3,0.8
		c0,0.5,0.6,1.1,1.9,1.6c1.8,0.8,2.9,1.5,3.5,2.1c0.6,0.6,0.9,1.5,0.9,2.6c0,1.4-0.5,2.5-1.5,3.5c-1,0.9-2.2,1.3-3.6,1.3
		c-2.4,0-4.1-1.2-5.1-3.5l2.8-1.3c0.4,0.7,0.7,1.1,0.9,1.3c0.4,0.4,0.9,0.6,1.4,0.6c1.1,0,1.7-0.5,1.7-1.5c0-0.6-0.4-1.1-1.3-1.6
		c-0.3-0.2-0.7-0.3-1-0.5c-0.3-0.2-0.7-0.3-1-0.5c-1-0.5-1.6-0.9-2-1.4c-0.5-0.6-0.7-1.4-0.7-2.3c0-1.2,0.4-2.3,1.3-3.1
		c0.9-0.8,1.9-1.2,3.2-1.2C264.9,142.3,266.3,143.2,267.2,145.1z"/>
	<path class="st0" d="M270.9,136.7c0-0.6,0.2-1.1,0.6-1.5c0.4-0.4,0.9-0.6,1.5-0.6c0.6,0,1.1,0.2,1.5,0.6c0.4,0.4,0.6,0.9,0.6,1.5
		c0,0.6-0.2,1.1-0.6,1.5c-0.4,0.4-0.9,0.6-1.5,0.6s-1.1-0.2-1.5-0.6C271.1,137.9,270.9,137.3,270.9,136.7z M274.7,142.7V157h-3.3
		v-14.3H274.7z"/>
	<path class="st0" d="M282.5,132.2v12.2c1.3-1.4,2.8-2.1,4.5-2.1c1.9,0,3.5,0.7,4.8,2.2c1.3,1.4,1.9,3.2,1.9,5.4
		c0,2.2-0.6,4-1.9,5.5c-1.3,1.4-2.9,2.1-4.9,2.1c-1.7,0-3.1-0.6-4.4-1.9v1.5h-3.3v-24.8H282.5z M290.3,149.9c0-1.4-0.4-2.5-1.1-3.4
		c-0.8-0.9-1.7-1.3-2.8-1.3c-1.2,0-2.2,0.4-3,1.3c-0.8,0.8-1.1,1.9-1.1,3.3c0,1.4,0.4,2.5,1.1,3.3c0.7,0.9,1.7,1.3,2.9,1.3
		c1.1,0,2.1-0.4,2.9-1.3C289.9,152.3,290.3,151.2,290.3,149.9z"/>
	<path class="st0" d="M297,136.7c0-0.6,0.2-1.1,0.6-1.5c0.4-0.4,0.9-0.6,1.5-0.6c0.6,0,1.1,0.2,1.5,0.6c0.4,0.4,0.6,0.9,0.6,1.5
		c0,0.6-0.2,1.1-0.6,1.5c-0.4,0.4-0.9,0.6-1.5,0.6s-1.1-0.2-1.5-0.6C297.2,137.9,297,137.3,297,136.7z M300.8,142.7V157h-3.3v-14.3
		H300.8z"/>
	<path class="st0" d="M308.6,132.2V157h-3.3v-24.8H308.6z"/>
	<path class="st0" d="M312.6,136.7c0-0.6,0.2-1.1,0.6-1.5c0.4-0.4,0.9-0.6,1.5-0.6c0.6,0,1.1,0.2,1.5,0.6c0.4,0.4,0.6,0.9,0.6,1.5
		c0,0.6-0.2,1.1-0.6,1.5c-0.4,0.4-0.9,0.6-1.5,0.6s-1.1-0.2-1.5-0.6C312.8,137.9,312.6,137.3,312.6,136.7z M316.4,142.7V157h-3.3
		v-14.3H316.4z"/>
	<path class="st0" d="M324.3,145.8V157H321v-11.2h-1.4v-3.1h1.4v-5.2h3.3v5.2h2.6v3.1H324.3z"/>
	<path class="st0" d="M342.7,150.6h-10.3c0.1,1.2,0.5,2.1,1.1,2.8c0.7,0.7,1.5,1,2.6,1c0.8,0,1.5-0.2,2-0.6c0.5-0.4,1.1-1.1,1.8-2.2
		l2.8,1.6c-0.4,0.7-0.9,1.4-1.4,1.9c-0.5,0.5-1,1-1.5,1.3s-1.1,0.6-1.8,0.7c-0.6,0.2-1.3,0.2-2.1,0.2c-2.1,0-3.9-0.7-5.1-2.1
		c-1.3-1.4-1.9-3.2-1.9-5.5c0-2.3,0.6-4.1,1.9-5.5c1.3-1.4,2.9-2.1,5-2.1c2.1,0,3.8,0.7,5,2c1.2,1.3,1.8,3.2,1.8,5.5L342.7,150.6z
		 M339.3,147.9c-0.5-1.8-1.6-2.6-3.3-2.6c-0.4,0-0.8,0.1-1.1,0.2c-0.4,0.1-0.7,0.3-1,0.5c-0.3,0.2-0.5,0.5-0.7,0.8
		c-0.2,0.3-0.4,0.7-0.5,1.1H339.3z M340.9,135.6l-5.4,4.9l-1.8-1.1l4-5.4L340.9,135.6z"/>
	<path class="st1" d="M363.5,145l-1.2,0.6c-0.2-0.5-0.5-0.9-1-1.1c-0.4-0.3-0.9-0.4-1.5-0.4c-0.6,0-1.1,0.2-1.6,0.6
		c-0.5,0.4-0.7,0.9-0.7,1.5c0,0.7,0.2,1.2,0.7,1.5c0.5,0.3,1.3,0.7,2.5,1.1c1.2,0.4,2.1,1,2.7,1.5c0.6,0.6,0.9,1.4,0.9,2.6
		c0,0.8-0.2,1.6-0.6,2.2c-0.4,0.7-0.9,1.2-1.6,1.6c-0.7,0.4-1.4,0.6-2.3,0.6c-1.2,0-2.2-0.3-3.1-1c-0.9-0.7-1.4-1.6-1.7-2.7l1.3-0.4
		c0.6,1.9,1.7,2.8,3.5,2.8c0.9,0,1.6-0.3,2.2-0.9c0.6-0.6,0.9-1.3,0.9-2.2c0-0.8-0.2-1.3-0.7-1.7c-0.5-0.4-1.1-0.7-2-1
		c-0.8-0.3-1.5-0.6-2.1-0.9s-1-0.7-1.4-1.2c-0.4-0.5-0.6-1.1-0.6-1.8c0-1,0.4-1.9,1.1-2.5c0.7-0.7,1.6-1,2.7-1
		c0.5,0,0.9,0.1,1.4,0.3c0.5,0.2,0.9,0.5,1.3,0.8C363,144.2,363.3,144.6,363.5,145z"/>
	<path class="st1" d="M376.5,143.1h1.4v8.3c0,0.9,0,1.7-0.1,2.3c-0.1,0.6-0.3,1.2-0.7,1.7c-0.5,0.6-1.1,1.1-1.8,1.4
		s-1.5,0.5-2.3,0.5c-0.8,0-1.6-0.2-2.3-0.5c-0.8-0.3-1.4-0.8-1.8-1.4c-0.3-0.4-0.4-0.7-0.6-1.2c-0.1-0.4-0.2-0.8-0.2-1.3
		s0-0.9,0-1.6v-8.3h1.4v7.9c0,0.8,0,1.4,0.1,2c0.1,0.6,0.2,1.1,0.5,1.6c0.2,0.5,0.6,0.8,1.1,1.1c0.5,0.3,1.1,0.4,1.9,0.4
		c1.5,0,2.5-0.4,3-1.3s0.7-2.1,0.7-3.8V143.1z"/>
	<path class="st1" d="M384,143.1v1.8h0.1c0.6-1.4,1.6-2.1,3-2.1c0.5,0,1,0.1,1.5,0.3l-0.7,1.2c-0.3-0.2-0.6-0.3-1-0.3
		c-0.8,0-1.5,0.3-1.9,0.8s-0.7,1.1-0.8,1.9c-0.1,0.7-0.2,1.6-0.2,2.5v0.7v7.1h-1.4v-13.9H384z"/>
	<path class="st1" d="M402.3,132.2V157h-1.4v-24.8H402.3z"/>
	<path class="st1" d="M419.3,150.2h-12.1c0,1.2,0.2,2.2,0.7,3.1c0.5,0.9,1.2,1.6,2,2.1c0.8,0.5,1.8,0.7,2.8,0.7c1.1,0,2-0.3,2.9-0.9
		s1.5-1.3,2-2.3l1.1,0.7c-0.6,1.2-1.5,2.1-2.6,2.8c-1.1,0.7-2.3,1-3.7,1c-1.3,0-2.5-0.3-3.5-1c-1-0.7-1.8-1.5-2.4-2.7
		s-0.8-2.3-0.8-3.6c0-1.3,0.3-2.5,0.8-3.6c0.6-1.1,1.4-2,2.4-2.6c1-0.7,2.2-1,3.5-1c1.4,0,2.5,0.3,3.6,1s1.8,1.6,2.3,2.7
		C419,147.6,419.3,148.8,419.3,150.2z M407.2,148.9h10.7c-0.1-0.9-0.4-1.7-0.9-2.4c-0.5-0.7-1.1-1.3-1.9-1.8
		c-0.8-0.4-1.6-0.7-2.5-0.7c-0.9,0-1.8,0.2-2.6,0.7s-1.5,1-2,1.8S407.3,148,407.2,148.9z"/>
	<path class="st1" d="M431.7,143.1l4.9,11.4l4.9-12.2l4.9,12.2l4.8-11.4h1.4l-6.3,14.7l-4.9-12l-4.9,12l-6.3-14.7H431.7z"/>
	<path class="st1" d="M467.5,150.2h-12.1c0,1.2,0.2,2.2,0.7,3.1c0.5,0.9,1.2,1.6,2,2.1c0.8,0.5,1.8,0.7,2.8,0.7c1.1,0,2-0.3,2.9-0.9
		c0.9-0.6,1.5-1.3,2-2.3l1.1,0.7c-0.6,1.2-1.5,2.1-2.6,2.8c-1.1,0.7-2.3,1-3.7,1c-1.3,0-2.5-0.3-3.5-1c-1-0.7-1.8-1.5-2.4-2.7
		c-0.6-1.1-0.8-2.3-0.8-3.6c0-1.3,0.3-2.5,0.8-3.6s1.4-2,2.4-2.6c1-0.7,2.2-1,3.5-1c1.4,0,2.5,0.3,3.6,1c1,0.7,1.8,1.6,2.3,2.7
		C467.2,147.6,467.5,148.8,467.5,150.2z M455.4,148.9h10.7c-0.1-0.9-0.4-1.7-0.9-2.4c-0.5-0.7-1.1-1.3-1.9-1.8
		c-0.8-0.4-1.6-0.7-2.5-0.7s-1.8,0.2-2.6,0.7s-1.5,1-2,1.8C455.8,147.2,455.5,148,455.4,148.9z"/>
	<path class="st1" d="M471.1,157v-24.8h1.4v13.3h0.1c0.6-0.9,1.3-1.5,2.3-2c1-0.5,2-0.7,3.1-0.7c1.3,0,2.5,0.3,3.6,0.9
		c1,0.6,1.8,1.5,2.4,2.6c0.6,1.1,0.8,2.3,0.8,3.7c0,1.3-0.3,2.6-0.8,3.7c-0.6,1.1-1.4,2-2.4,2.7c-1,0.6-2.2,1-3.6,1
		c-1.1,0-2.1-0.3-3.1-0.8c-1-0.5-1.7-1.2-2.2-2h-0.1v2.5H471.1z M477.8,156c1.1,0,2.1-0.3,2.9-0.8c0.8-0.6,1.5-1.3,1.9-2.2
		c0.4-0.9,0.7-1.9,0.7-3c0-0.8-0.1-1.5-0.4-2.2s-0.6-1.3-1.1-1.9c-0.5-0.6-1.1-1-1.7-1.3c-0.7-0.3-1.4-0.5-2.2-0.5
		c-1.1,0-2.1,0.3-3,0.8c-0.8,0.5-1.5,1.2-1.9,2.1c-0.4,0.9-0.7,1.9-0.7,3c0,1.1,0.2,2.1,0.7,3c0.4,0.9,1.1,1.7,1.9,2.2
		S476.7,156,477.8,156z"/>
</g>
<g>
	<path class="st0" d="M97.8,175.2l30.3,87h0.3l30.1-87h6.5l-37,105.2L91.3,175.2H97.8z"/>
	<path class="st0" d="M184.3,175.2V277h-6.5V175.2H184.3z"/>
	<path class="st1" d="M204.7,175.2l28.6,87.5l38.1-92.7l38.1,92.7l28.2-87.5h6.5L310,280.4l-38.9-94.2l-38.8,94.2l-34-105.2H204.7z"
		/>
	<path class="st1" d="M406.8,181.2h-42.1v37h41.1v6.1h-41.1v46.6h42.1v6.1h-48.6V175.2h48.6V181.2z"/>
	<path class="st1" d="M454.1,277H428V175.2h20.4c4.7,0,8.7,0.4,12,1.1c3.3,0.8,6.3,2.4,9.1,4.8c5.7,4.9,8.5,11.9,8.5,21.1
		c0,9.4-3.9,16.3-11.7,20.8c4.1,0.8,7.8,2.5,11,4.9c3.2,2.4,5.7,5.4,7.5,9c1.8,3.6,2.6,7.5,2.6,11.8c0,8.7-3.2,15.7-9.5,21.1
		c-3.3,2.8-6.8,4.7-10.6,5.7S459.2,277,454.1,277z M434.5,181.2v40.1h11.2h3.3c3.3,0,6-0.2,8.3-0.7c2.3-0.5,4.5-1.5,6.6-3.1
		c2.8-2.1,4.8-4.4,5.9-6.9c1.1-2.6,1.7-5.7,1.7-9.4c0-3.5-0.7-6.7-2.1-9.7c-1.4-2.9-3.5-5.3-6.3-7.1c-2.3-1.5-4.8-2.4-7.4-2.7
		c-2.6-0.4-6-0.5-10-0.5H434.5z M434.5,227.4v43.5H450c4.8,0,8.8-0.2,12-0.7s6.1-1.5,8.9-3.3c6.7-4.5,10-10.5,10-18.1
		c0-3.9-0.9-7.5-2.8-10.8c-1.8-3.3-4.4-5.8-7.8-7.4c-4.3-2.2-11.5-3.2-21.5-3.2H434.5z"/>
</g>
<line class="st2" x1="90" y1="168" x2="487" y2="168"/>
<line class="st2" x1="90" y1="284" x2="487" y2="284"/>
</svg>
