<?xml version="1.0" encoding="utf-8"?>
<!-- Generator: Adobe Illustrator 22.0.1, SVG Export Plug-In . SVG Version: 6.00 Build 0)  -->
<svg version="1.1" xmlns="http://www.w3.org/2000/svg" xmlns:xlink="http://www.w3.org/1999/xlink" x="0px" y="0px"
	 viewBox="0 0 283.5 283.5" style="enable-background:new 0 0 283.5 283.5;" xml:space="preserve">
<style type="text/css">
	.st0{fill:url(#SVGID_1_);}
	.st1{fill:#3A74C5;}
	.st2{fill:url(#SVGID_2_);}
	.st3{fill:#007EE8;}
	.st4{fill:url(#SVGID_3_);}
	.st5{fill:url(#SVGID_4_);}
	.st6{fill:url(#SVGID_5_);}
	.st7{fill:#FFFFFF;}
	.st8{fill:url(#SVGID_6_);}
	.st9{fill:url(#SVGID_7_);}
	.st10{fill:url(#SVGID_8_);}
</style>
<g id="Layer_1">
</g>
<g id="Layer_2">
</g>
<g id="Isolation_Mode">
	<g>
		<g>
			<linearGradient id="SVGID_1_" gradientUnits="userSpaceOnUse" x1="144.9316" y1="182.582" x2="144.9316" y2="21.8047">
				<stop  offset="0" style="stop-color:#005BB0"/>
				<stop  offset="0.1814" style="stop-color:#0061B6"/>
				<stop  offset="0.4326" style="stop-color:#0073C6"/>
				<stop  offset="0.7231" style="stop-color:#0090E0"/>
				<stop  offset="1" style="stop-color:#00B3FF"/>
			</linearGradient>
			<path class="st0" d="M125.3,182.6c-13.5,0-26.2-5.2-35.8-14.6c-5.2,1.6-10.7,2.4-16.2,2.4c-30.9,0-56-25.1-56-56
				c0-30.9,25.1-56,56-56c2.3,0,4.7,0.2,7.1,0.5C87,37,107.4,21.8,130.3,21.8c22.6,0,42.9,15,49.6,36.4c2.7-0.6,5.3-0.9,8-0.9
				c16.3,0,30.7,10.2,36.1,25.5c2.4-0.4,4.8-0.6,7.2-0.6c22.8,0,41.4,18.6,41.4,41.4c0,22.8-18.6,41.4-41.4,41.4
				c-5.8,0-11.4-1.2-16.7-3.5c-9,7.8-20.6,12.1-32.5,12.1c-7.6,0-14.8-1.7-21.6-4.9C150.7,177.7,138.3,182.6,125.3,182.6
				L125.3,182.6z"/>
			<path class="st1" d="M231.1,82.9c-2.6,0-5.1,0.2-7.5,0.7c-5-14.9-19.1-25.6-35.7-25.6c-2.9,0-5.7,0.3-8.4,1
				c-6.4-21.1-26-36.5-49.2-36.5c-23.4,0-43.2,15.7-49.4,37.1c-2.5-0.3-5-0.5-7.6-0.5C42.8,59,18,83.8,18,114.4s24.8,55.4,55.4,55.4
				c5.7,0,11.2-0.9,16.3-2.5c9.1,9.1,21.7,14.7,35.6,14.7c13.5,0,25.8-5.3,34.8-13.9c6.5,3.2,13.9,5,21.7,5
				c12.4,0,23.8-4.6,32.4-12.2c5.1,2.3,10.8,3.6,16.8,3.6c22.5,0,40.8-18.3,40.8-40.8C271.9,101.2,253.6,82.9,231.1,82.9z"/>
			<radialGradient id="SVGID_2_" cx="88.6427" cy="52.0546" r="200.839" gradientUnits="userSpaceOnUse">
				<stop  offset="0" style="stop-color:#F7FCFF"/>
				<stop  offset="8.217221e-02" style="stop-color:#F1FAFF"/>
				<stop  offset="0.196" style="stop-color:#DFF4FF"/>
				<stop  offset="0.3284" style="stop-color:#C1EBFF"/>
				<stop  offset="0.4747" style="stop-color:#98DFFF"/>
				<stop  offset="0.6306" style="stop-color:#64CFFF"/>
				<stop  offset="0.7234" style="stop-color:#42C4FF"/>
				<stop  offset="0.8243" style="stop-color:#44C5FF"/>
				<stop  offset="0.8667" style="stop-color:#4BC7FF"/>
				<stop  offset="0.8981" style="stop-color:#58CBFF"/>
				<stop  offset="0.9242" style="stop-color:#69D0FF"/>
				<stop  offset="0.9469" style="stop-color:#80D8FF"/>
				<stop  offset="0.9672" style="stop-color:#9DE0FF"/>
				<stop  offset="0.9854" style="stop-color:#BDEBFF"/>
				<stop  offset="1" style="stop-color:#DEF5FF"/>
			</radialGradient>
			<path class="st2" d="M231.1,88.5c-4.1,0-7.9,0.7-11.6,2c-2.5-15.2-15.7-26.9-31.6-26.9c-4.4,0-8.6,0.9-12.5,2.5
				C171.7,44.5,152.9,28,130.3,28c-22.6,0-41.4,16.5-45.1,38c-3.8-0.9-7.7-1.4-11.8-1.4c-27.5,0-49.8,22.4-49.8,49.8
				c0,27.5,22.3,49.8,49.8,49.8c6.3,0,12.4-1.2,17.9-3.4c8.3,9.5,20.4,15.6,34,15.6c13.4,0,25.5-5.9,33.8-15.3
				c6.6,4.1,14.4,6.4,22.7,6.4c12.3,0,23.5-5.2,31.5-13.4c5.2,3.1,11.3,4.8,17.8,4.8c19.4,0,35.2-15.8,35.2-35.2
				S250.5,88.5,231.1,88.5z"/>
			<path class="st3" d="M231.5,90.1c-4,0-7.9,0.7-11.5,1.9c-2.5-15-15.7-26.6-31.6-26.6c-4.4,0-8.6,0.9-12.4,2.5
				c-3.7-21.3-22.5-37.7-45-37.7c-22.5,0-41.3,16.3-45,37.6c-3.8-0.9-7.7-1.4-11.8-1.4c-27.4,0-49.7,22.1-49.7,49.2
				c0,27.1,22.3,49.2,49.7,49.2c6.3,0,12.3-1.2,17.9-3.3c8.2,9.4,20.4,15.4,33.9,15.4c13.4,0,25.5-5.9,33.7-15.1
				c6.6,4,14.4,6.3,22.7,6.3c12.3,0,23.5-5.1,31.4-13.3c5.2,3,11.3,4.8,17.8,4.8c19.4,0,35.2-15.6,35.2-34.8
				C266.7,105.7,250.9,90.1,231.5,90.1z"/>
			<radialGradient id="SVGID_3_" cx="92.7148" cy="62.333" r="191.5238" gradientUnits="userSpaceOnUse">
				<stop  offset="0" style="stop-color:#F7FCFF"/>
				<stop  offset="8.337128e-02" style="stop-color:#F1F8FD"/>
				<stop  offset="0.1989" style="stop-color:#DFEBF8"/>
				<stop  offset="0.3332" style="stop-color:#C1D6F0"/>
				<stop  offset="0.4816" style="stop-color:#98B9E5"/>
				<stop  offset="0.6398" style="stop-color:#6495D7"/>
				<stop  offset="0.7234" style="stop-color:#467FCF"/>
				<stop  offset="0.8412" style="stop-color:#4881D0;stop-opacity:0.787"/>
				<stop  offset="0.8907" style="stop-color:#4F87D5;stop-opacity:0.6975"/>
				<stop  offset="0.9274" style="stop-color:#5C91DC;stop-opacity:0.6312"/>
				<stop  offset="0.9578" style="stop-color:#6DA0E7;stop-opacity:0.5763"/>
				<stop  offset="0.984" style="stop-color:#84B3F4;stop-opacity:0.5289"/>
				<stop  offset="1" style="stop-color:#96C2FF;stop-opacity:0.5"/>
			</radialGradient>
			<path class="st4" d="M231.1,88.5c-4.1,0-7.9,0.7-11.6,2c-2.5-15.2-15.7-26.9-31.6-26.9c-4.4,0-8.6,0.9-12.5,2.5
				C171.7,44.5,152.9,28,130.3,28c-22.6,0-41.4,16.5-45.1,38c-3.8-0.9-7.7-1.4-11.8-1.4c-27.5,0-49.8,22.4-49.8,49.8
				c0,27.5,22.3,49.8,49.8,49.8c6.3,0,12.4-1.2,17.9-3.4c8.3,9.5,20.4,15.6,34,15.6c13.4,0,25.5-5.9,33.8-15.3
				c6.6,4.1,14.4,6.4,22.7,6.4c12.3,0,23.5-5.2,31.5-13.4c5.2,3.1,11.3,4.8,17.8,4.8c19.4,0,35.2-15.8,35.2-35.2
				S250.5,88.5,231.1,88.5z"/>
			
				<radialGradient id="SVGID_4_" cx="89.4349" cy="90.5855" r="191.5205" gradientTransform="matrix(1.0027 0 0 0.9263 2.8971 -18.637)" gradientUnits="userSpaceOnUse">
				<stop  offset="0" style="stop-color:#F7FCFF"/>
				<stop  offset="9.421251e-02" style="stop-color:#F3FBFF"/>
				<stop  offset="0.191" style="stop-color:#E7F7FF"/>
				<stop  offset="0.2891" style="stop-color:#D2F1FF"/>
				<stop  offset="0.388" style="stop-color:#B5E8FF"/>
				<stop  offset="0.4877" style="stop-color:#90DDFF"/>
				<stop  offset="0.5863" style="stop-color:#63D0FF"/>
				<stop  offset="0.6824" style="stop-color:#30C1FF"/>
				<stop  offset="0.8913" style="stop-color:#2BC0FF"/>
				<stop  offset="1" style="stop-color:#26BEFF"/>
			</radialGradient>
			<path class="st5" d="M122.4,162.7c-11.4,0-22.3-4.6-29.8-12.6l-2.6-2.8l-3.7,1.3c-5.1,1.8-10.5,2.8-15.9,2.8
				c-24.4,0-44.3-18.3-44.3-40.9c0-22.6,19.9-40.9,44.3-40.9c3.5,0,7,0.4,10.5,1.2l5.9,1.3l1-5.5c3.3-17.9,20-30.9,39.6-30.9
				c19.7,0,36.4,13,39.7,30.9l1.2,6.5l6.6-2.6c3.3-1.3,6.7-1.9,10.3-1.9c13,0,24,8.6,26.1,20.5l1.1,6.2l6.4-2.1
				c3.1-1,6.4-1.5,9.7-1.5c16.4,0,29.7,12.3,29.7,27.4c0,15.1-13.3,27.4-29.7,27.4c-5.3,0-10.4-1.3-15-3.8l-3.9-2.1l-3.1,3
				c-7.3,7-17,10.8-27.4,10.8c-7,0-13.9-1.8-19.8-5.2l-4.1-2.3l-3.2,3.3C144.5,158.1,133.7,162.7,122.4,162.7L122.4,162.7z"/>
			
				<radialGradient id="SVGID_5_" cx="89.4346" cy="90.5849" r="191.522" gradientTransform="matrix(1.0027 0 0 0.9263 2.8971 -18.637)" gradientUnits="userSpaceOnUse">
				<stop  offset="9.836070e-02" style="stop-color:#FAFDFF"/>
				<stop  offset="0.1906" style="stop-color:#F6FCFF"/>
				<stop  offset="0.2854" style="stop-color:#EAF8FF"/>
				<stop  offset="0.3813" style="stop-color:#D5F2FF"/>
				<stop  offset="0.4781" style="stop-color:#B8E9FF"/>
				<stop  offset="0.5755" style="stop-color:#93DDFF"/>
				<stop  offset="0.6722" style="stop-color:#66D0FF"/>
				<stop  offset="0.6824" style="stop-color:#61CEFF"/>
				<stop  offset="0.7312" style="stop-color:#66CFFF"/>
				<stop  offset="0.7869" style="stop-color:#74D4FF"/>
				<stop  offset="0.8461" style="stop-color:#8ADBFF"/>
				<stop  offset="0.9077" style="stop-color:#AAE5FF"/>
				<stop  offset="0.9706" style="stop-color:#D3F1FF"/>
				<stop  offset="1" style="stop-color:#E9F8FF"/>
			</radialGradient>
			<path class="st6" d="M45.6,144.3c50.5-29.2,105.2-50.9,162-64.3c-4.7-6.9-13-11.4-22.4-11.4c-3.6,0-7,0.6-10.3,1.9l-6.6,2.6
				l-1.2-6.5c-3.3-17.9-20-30.9-39.7-30.9c-19.6,0-36.3,13-39.6,30.9l-1,5.5l-5.9-1.3c-3.4-0.8-7-1.2-10.5-1.2
				c-24.4,0-44.3,18.3-44.3,40.9C26.1,124.5,33.8,136.9,45.6,144.3z"/>
			<g>
				<path class="st7" d="M188.6,64.7c10.2,0.5,19.3,4.9,25.1,12c-5.8-7.9-15.2-13.1-25.8-13.1c-4.1,0-8,0.8-11.7,2.2
					C179.8,65.2,183.7,64.5,188.6,64.7z"/>
				<path class="st7" d="M232.4,89.5c11.3,0.8,20.6,5.5,27.1,13.3c-6.4-8.7-16.7-14.3-28.4-14.3c-3.7,0-7.4,0.6-10.8,1.7
					C226.3,89.3,228.4,89.2,232.4,89.5z"/>
				<path class="st7" d="M24.7,115.9c0-27.5,22.3-49.8,49.8-49.8c4.1,0,8,0.5,11.8,1.4c3.7-21.6,22.5-38,45.1-38
					c14.3,0,27.2,6.6,35.6,17C158.7,35.2,145.3,28,130.3,28c-22.6,0-41.4,16.5-45.1,38c-3.8-0.9-7.7-1.4-11.8-1.4
					c-27.5,0-49.8,22.4-49.8,49.8c0,11.8,4.1,22.6,11,31.1C28.3,137.2,24.7,127,24.7,115.9z"/>
			</g>
		</g>
		<g>
			<linearGradient id="SVGID_6_" gradientUnits="userSpaceOnUse" x1="156.6264" y1="57.6293" x2="267.7903" y2="57.6293">
				<stop  offset="0" style="stop-color:#005BB0"/>
				<stop  offset="0.1814" style="stop-color:#0061B6"/>
				<stop  offset="0.4326" style="stop-color:#0073C6"/>
				<stop  offset="0.7231" style="stop-color:#0090E0"/>
				<stop  offset="1" style="stop-color:#00B3FF"/>
			</linearGradient>
			<path class="st8" d="M206.7,113.3c-1,0-1.8-0.7-1.8-1.7v-8.9l-5.1,3.4c-0.3,0.2-0.7,0.3-1.1,0.3c-0.1,0-0.2,0-0.3,0
				c-0.5-0.1-0.9-0.3-1.2-0.7l-6.6-8.2c-0.6-0.7-0.4-1.8,0.4-2.3l13.8-9.3V69.3l-15.8,8.4l-1.9,15.6c-0.1,0.8-0.9,1.5-1.8,1.5
				c-0.1,0-11.2-1.1-11.2-1.1c-1-0.1-1.7-0.9-1.6-1.8l0.7-5.8l-8.4,4.4c-0.3,0.2-0.6,0.2-0.9,0.2c-0.6,0-1.2-0.3-1.6-0.8l-5.5-8.8
				c-0.2-0.4-0.3-0.8-0.2-1.3c0.1-0.4,0.4-0.8,0.8-1l8.4-4.4l-5.8-2.3c-0.4-0.2-0.8-0.5-1-0.9c-0.2-0.4-0.2-0.9,0-1.3l4.5-9.3
				c0.3-0.6,1-1,1.7-1c0.2,0,0.5,0,0.7,0.1l15.7,6.3l15.8-8.4l-15.8-8.4l-15.7,6.3c-0.2,0.1-0.5,0.1-0.7,0.1c-0.7,0-1.4-0.4-1.7-1
				l-4.5-9.3c-0.4-0.8,0-1.8,0.9-2.2l5.8-2.3l-8.4-4.4c-0.9-0.5-1.2-1.5-0.7-2.3l5.5-8.8c0.2-0.4,0.6-0.7,1.1-0.8
				c0.2,0,0.3-0.1,0.5-0.1c0.3,0,0.6,0.1,0.9,0.2l8.4,4.4l-0.7-5.8c-0.1-0.4,0.1-0.9,0.4-1.2c0.3-0.3,0.7-0.6,1.2-0.6
				c0,0,11.2-1.1,11.2-1.1c0.9,0,1.7,0.6,1.8,1.5l1.9,15.6l15.8,8.4V29.2L191.1,20c-0.8-0.5-1-1.6-0.4-2.3l6.6-8.2
				c0.4-0.4,0.9-0.7,1.5-0.7c0.4,0,0.7,0.1,1.1,0.3l5.1,3.4V3.6c0-0.9,0.8-1.7,1.8-1.7h11.1c1,0,1.8,0.7,1.8,1.7v8.9l5.1-3.4
				c0.3-0.2,0.7-0.3,1.1-0.3c0.1,0,0.2,0,0.3,0c0.5,0.1,0.9,0.3,1.2,0.7l6.6,8.2c0.6,0.7,0.4,1.8-0.4,2.3l-13.8,9.3V46l15.8-8.4
				l1.9-15.6c0.1-0.8,0.9-1.5,1.8-1.5c0.1,0,11.2,1.1,11.2,1.1c0.5,0,0.9,0.3,1.2,0.6c0.3,0.3,0.4,0.8,0.4,1.2l-0.7,5.8l8.4-4.4
				c0.3-0.2,0.6-0.2,0.9-0.2c0.6,0,1.2,0.3,1.6,0.8l5.5,8.8c0.5,0.8,0.2,1.8-0.7,2.3l-8.4,4.4l5.8,2.3c0.4,0.2,0.8,0.5,1,0.9
				c0.2,0.4,0.2,0.9,0,1.3l-4.5,9.3c-0.3,0.6-1,1-1.7,1c-0.2,0-0.5,0-0.7-0.1l-15.7-6.3l-15.8,8.4l15.8,8.4l15.7-6.3
				c0.2-0.1,0.5-0.1,0.7-0.1c0.7,0,1.4,0.4,1.7,1l4.5,9.3c0.4,0.8,0,1.8-0.9,2.2l-5.8,2.3l8.4,4.5c0.9,0.5,1.2,1.5,0.7,2.3l-5.5,8.8
				c-0.3,0.5-0.9,0.8-1.6,0.8c-0.3,0-0.6-0.1-0.9-0.2l-8.4-4.4l0.7,5.8c0.1,0.4-0.1,0.9-0.4,1.2c-0.3,0.3-0.7,0.6-1.2,0.6
				c0,0-11.2,1.1-11.2,1.1c-0.9,0-1.7-0.6-1.8-1.5l-1.9-15.6l-15.8-8.4V86l13.8,9.3c0.8,0.5,1,1.6,0.4,2.3l-6.5,8.2
				c-0.3,0.4-0.7,0.6-1.2,0.7c-0.1,0-0.2,0-0.3,0c-0.4,0-0.8-0.1-1.1-0.3l-5.1-3.4l0,8.9c0,0.9-0.8,1.7-1.8,1.7H206.7z"/>
			
				<radialGradient id="SVGID_7_" cx="227.6832" cy="37.2741" r="22.0796" gradientTransform="matrix(2.5541 0 0 2.342 -369.3167 -29.6668)" gradientUnits="userSpaceOnUse">
				<stop  offset="0.2365" style="stop-color:#D6EFFF"/>
				<stop  offset="0.7734" style="stop-color:#6BC4FF"/>
				<stop  offset="0.8209" style="stop-color:#6FC6FF"/>
				<stop  offset="0.8681" style="stop-color:#7BCAFF"/>
				<stop  offset="0.9153" style="stop-color:#8FD2FF"/>
				<stop  offset="0.9621" style="stop-color:#ABDEFF"/>
				<stop  offset="1" style="stop-color:#C7E9FF"/>
			</radialGradient>
			<polygon class="st9" points="263.6,70.5 259.1,61.2 242.6,67.8 223.3,57.6 242.6,47.4 259.1,54.1 263.6,44.8 254.5,41.1 266,35 
				260.4,26.2 249,32.3 250,23.3 239,22.2 237,38.6 217.8,48.8 217.8,28.4 232.3,18.6 225.7,10.4 217.8,15.8 217.8,3.6 206.7,3.6 
				206.7,15.8 198.7,10.4 192.1,18.6 206.7,28.4 206.7,48.8 187.4,38.6 185.4,22.2 174.4,23.3 175.5,32.3 164,26.2 158.4,35 
				169.9,41.1 160.9,44.8 165.3,54.1 181.8,47.4 201.1,57.6 181.8,67.8 165.3,61.2 160.9,70.5 169.9,74.1 158.4,80.2 164,89 
				175.5,82.9 174.4,92 185.4,93.1 187.4,76.6 206.7,66.4 206.7,86.9 192.1,96.6 198.7,104.8 206.7,99.5 206.7,111.6 217.7,111.6 
				217.8,99.5 225.7,104.8 232.3,96.6 217.8,86.9 217.8,66.4 237,76.7 239,93.1 250,92 249,83 260.4,89 266,80.2 254.5,74.1 			"/>
			
				<radialGradient id="SVGID_8_" cx="227.6831" cy="37.2741" r="22.0796" gradientTransform="matrix(2.5541 0 0 2.342 -369.3167 -29.6668)" gradientUnits="userSpaceOnUse">
				<stop  offset="0" style="stop-color:#FFFFFF"/>
				<stop  offset="0.1785" style="stop-color:#FBFDFF"/>
				<stop  offset="0.3618" style="stop-color:#EFF8FF"/>
				<stop  offset="0.5473" style="stop-color:#DAF0FF"/>
				<stop  offset="0.7333" style="stop-color:#BDE4FF"/>
				<stop  offset="0.7635" style="stop-color:#B8E2FF"/>
				<stop  offset="0.8856" style="stop-color:#BCE4FF"/>
				<stop  offset="1" style="stop-color:#C7E9FF"/>
			</radialGradient>
			<path class="st10" d="M164,89l11.5-6.1l-1.1,9l4,0.4c2.6-3.9,5.4-7.6,8.4-11.2l0.5-4.5l6.7-3.6c18.6-19.1,43.1-33.3,70.7-40
				l-4.3-6.9L249,32.3l1.1-9l-11-1.1l-2,16.4l-19.3,10.2V28.4l14.5-9.8l-6.6-8.2l-8,5.4V3.6h-11.1v12.2l-8-5.4l-6.6,8.2l14.5,9.8
				v20.4l-19.3-10.2l-2-16.4l-11,1.1l1.1,9L164,26.2l-5.5,8.8l11.5,6.1l-9.1,3.7l4.5,9.3l16.5-6.7l19.3,10.2l-19.3,10.2l-16.5-6.7
				l-4.5,9.3l9.1,3.7l-11.5,6.1L164,89z"/>
		</g>
	</g>
</g>
</svg>
