<?xml version="1.0" encoding="utf-8"?>
<!-- Generator: Adobe Illustrator 21.1.0, SVG Export Plug-In . SVG Version: 6.00 Build 0)  -->
<svg version="1.1" xmlns="http://www.w3.org/2000/svg" xmlns:xlink="http://www.w3.org/1999/xlink" x="0px" y="0px"
	 viewBox="0 0 300 65" style="enable-background:new 0 0 300 65;" xml:space="preserve">
<style type="text/css">
	.st0{display:none;}
	.st1{display:inline;}
	.st2{fill:#ED2024;}
	.st3{fill:#FFFFFF;}
</style>
<g id="Layer_2" class="st0">
	<g class="st1">
		<rect x="-30.5" y="-54.5" class="st2" width="368" height="143"/>
		<path d="M337-54V88H-30V-54H337 M338-55H-31V89h369V-55L338-55z"/>
	</g>
</g>
<g id="Layer_1">
	<g id="SNOWFLAKE_7">
		<g id="snowflake_7">
			<g>
				<path class="st3" d="M96.7,11.1c-0.1-0.3-0.4-0.4-0.6-0.3l-1.3,0.4l0.2-0.6c0.1-0.3-0.1-0.5-0.3-0.6c-0.3-0.1-0.5,0.1-0.6,0.3
					l-0.4,1.3L92.3,12l0.6-1.7c0.1-0.3-0.1-0.5-0.3-0.6c-0.3-0.1-0.5,0.1-0.6,0.3l-0.8,2.4l-1.6,0.5l0.6-0.9
					c0.2-0.2,0.1-0.5-0.1-0.7c-0.2-0.2-0.5-0.1-0.7,0.1l-0.5,0.8v-1.6l2.1-1.5c0.2-0.2,0.3-0.5,0.1-0.7c-0.2-0.2-0.5-0.3-0.7-0.1
					l-1.5,1.1V8l1.1-0.8C90.1,7,90.2,6.7,90,6.5c-0.2-0.2-0.5-0.3-0.7-0.1l-0.5,0.4V5.4c0-0.3-0.2-0.5-0.5-0.5
					c-0.3,0-0.5,0.2-0.5,0.5v1.3l-0.5-0.4c-0.2-0.2-0.5-0.1-0.7,0.1c-0.2,0.2-0.1,0.5,0.1,0.7L87.8,8v1.4l-1.5-1.1
					c-0.2-0.2-0.5-0.1-0.7,0.1c-0.2,0.2-0.1,0.5,0.1,0.7l2.1,1.5v1.8l-0.7-0.9c-0.2-0.2-0.5-0.2-0.7-0.1c-0.2,0.2-0.2,0.5-0.1,0.7
					l0.5,0.7l-1.4-0.5l-0.8-2.4c-0.1-0.3-0.4-0.4-0.6-0.3c-0.3,0.1-0.4,0.4-0.3,0.6l0.6,1.7L83,11.5l-0.4-1.3
					c-0.1-0.3-0.4-0.4-0.6-0.3c-0.3,0.1-0.4,0.4-0.3,0.6l0.2,0.6l-1.3-0.4c-0.3-0.1-0.5,0.1-0.6,0.3c-0.1,0.3,0.1,0.5,0.3,0.6
					l1.3,0.4L81,12.5c-0.2,0.2-0.3,0.5-0.1,0.7c0.1,0.1,0.2,0.2,0.4,0.2c0.1,0,0.2,0,0.3-0.1l1.1-0.8l1.3,0.4L82.5,14
					c-0.2,0.2-0.3,0.5-0.1,0.7c0.1,0.1,0.2,0.2,0.4,0.2c0.1,0,0.2,0,0.3-0.1l2.1-1.5l1.7,0.6l-1.1,0.4c-0.3,0.1-0.4,0.4-0.3,0.6
					c0.1,0.2,0.3,0.3,0.5,0.3c0.1,0,0.1,0,0.2,0l0.7-0.3L86.1,16l-2.6,0c-0.3,0-0.5,0.2-0.5,0.5c0,0.3,0.2,0.5,0.5,0.5h0l1.8,0
					l-0.8,1.1l-1.4,0c-0.3,0-0.5,0.2-0.5,0.5c0,0.3,0.2,0.5,0.5,0.5c0,0,0,0,0,0l0.6,0L83,20.2c-0.2,0.2-0.1,0.5,0.1,0.7
					c0.1,0.1,0.2,0.1,0.3,0.1c0.2,0,0.3-0.1,0.4-0.2l0.8-1.1l0.2,0.6c0.1,0.2,0.3,0.3,0.5,0.3c0,0,0.1,0,0.2,0
					c0.3-0.1,0.4-0.4,0.3-0.6l-0.4-1.3l0.8-1.1l0.6,1.8c0.1,0.2,0.3,0.3,0.5,0.3c0,0,0.1,0,0.2,0c0.3-0.1,0.4-0.4,0.3-0.6l-0.8-2.4
					l1-1.3v1c0,0.3,0.2,0.5,0.5,0.5c0.3,0,0.5-0.2,0.5-0.5v-1l1,1.3L89,19.1c-0.1,0.3,0.1,0.5,0.3,0.6c0,0,0.1,0,0.1,0
					c0.2,0,0.4-0.1,0.5-0.3l0.6-1.8l0.8,1.1L90.9,20c-0.1,0.3,0.1,0.5,0.3,0.6c0,0,0.1,0,0.2,0c0.2,0,0.4-0.1,0.5-0.3l0.2-0.6
					l0.8,1.1c0.1,0.1,0.2,0.2,0.4,0.2c0.1,0,0.2,0,0.3-0.1c0.2-0.2,0.3-0.5,0.1-0.7l-0.8-1.1l0.6,0c0,0,0,0,0,0
					c0.3,0,0.5-0.2,0.5-0.5c0-0.3-0.2-0.5-0.5-0.5l-1.4,0L91.3,17l1.8,0c0,0,0,0,0,0c0.3,0,0.5-0.2,0.5-0.5c0-0.3-0.2-0.5-0.5-0.5
					l-2.6,0l-1-1.4l1,0.3c0,0,0.1,0,0.1,0c0.2,0,0.4-0.1,0.5-0.3c0.1-0.3-0.1-0.5-0.3-0.6L90,13.8l1.5-0.5l2.1,1.5
					c0.1,0.1,0.2,0.1,0.3,0.1c0.2,0,0.3-0.1,0.4-0.2c0.2-0.2,0.1-0.5-0.1-0.7l-1.5-1.1l1.3-0.4l1.1,0.8c0.1,0.1,0.2,0.1,0.3,0.1
					c0.2,0,0.3-0.1,0.4-0.2c0.2-0.2,0.1-0.5-0.1-0.7l-0.5-0.4l1.3-0.4C96.7,11.6,96.8,11.3,96.7,11.1z"/>
			</g>
		</g>
	</g>
	<g>
		<path class="st3" d="M30,61.6c-10.1,0.7-18-8.5-18.3-21.3c-0.4-23,10.7-36.1,11.1-36.4c1.7,0.3,2.7,0.8,4.3,0.4
			c1.5-0.4,3.8-1.4,6.6-1.3C37.1,3,41,3.9,44.4,6.6c0.3,2.2,0.4,3.5,0.7,5.7c0.6,4.2,0.9,6.7,1.6,10.9c-0.1,0.1-2.7,2.3-4.7,2.3
			c-1.4,0.1-5.5-2.7-5.6-3l-0.2-7.6c-0.1-2.7-1.2-5.6-3.4-6c-4.4-0.7-10.6,15-10.6,26.8c0.1,8.1,1.9,19.4,7.1,19.9
			c7.1,0.6,9.4-14.6,9.3-14.9l-8.7,0.5c-1.2-0.6-1.8-1.5-1.8-2.9c0-1.2,1.7-1.6,1.4-2.7c-0.1-0.8-0.9-0.9-1.1-1.7
			c-0.1-0.9,0.4-1.9,1.2-2.3H48c0.4,2.4,0.4,3.9,0.4,6.3C47.9,50.9,41.6,60.7,30,61.6z"/>
		<path class="st3" d="M81.6,53.1c-2.6,3.7-7,6.3-10.2,6c-2.4-0.3-4.1-2.3-5.3-3.5c-1.1,1.1-4.2,7.6-8.1,7.1
			c-6.1-0.7-7.8-7.3-7.5-13.9c0.7-12.9,4.9-23.8,13.1-23.6c1.9,0,3,1.4,4.3,2.7c1.7,0.6,8,0.8,8.4,3c0.3,1.7-0.6,4.5-0.9,6.1
			l-1.5,8.8c-0.6,3.8,0,5.5,1.7,6.5c1.3,0.9,3.9-2.1,6.1-5.6c1.2-1.1,1.4-0.1,1.4,0.4c0.1,1.4,0.1,1.7,0.1,3.5
			C83.1,51.2,82.4,52.2,81.6,53.1z M60.8,41.4c-1,4.8-2.5,11.9,0.1,12.7c2.4,0.7,4.1-5.3,4.6-9.2l1.3-12.5
			C65.7,32.1,63.7,26.9,60.8,41.4z"/>
		<path class="st3" d="M99.6,50.9c0,0.6-0.9,1.7-1.2,2.2c-0.6,0.6-3.5,6.8-9.5,6.5c-3.2-0.2-6.6-4.2-7-6c-1-5-0.6-10.8,0.4-17.4
			c0.3-2.1,0.4-3.4,0.9-5.4c-0.6-0.9-1.3-2.1-0.5-2.7c0.9-0.8,6.2-1.7,6.3-1.4c0.3-0.1,5.8,2.5,5.3,4.2c-0.3,0.9-0.8,1.7-1.7,2.2
			c-0.1,0.3-0.9,5.9-1.4,9.6c-0.5,3.8-1.2,10.1,1.8,9.9c2-0.1,4.8-5,5.4-5.8c0.7-0.7,1.5-1.4,1.4-0.2C99.6,47.9,99.8,49,99.6,50.9z"
			/>
		<path class="st3" d="M114.3,41.3l-9.6,1.2c-0.7,0.1-1.5,0.2-2.2-0.2c-1.2-0.8-0.2-3.8-0.1-3.8c-0.1,0-1.2-2.1-0.6-3.1
			c0.5-0.6,1.2-1,2-1l10.6-0.1c1.5,0,2.8,0.1,3.7,1.7c0.4,0.9,0.6,1.7,0.4,2.7c0.8,0.6,1.5,1.8,0.9,2.6
			C118.8,41.8,116.2,41.1,114.3,41.3z"/>
		<path class="st3" d="M157.8,52c-0.7,2.1-1.6,5.3-1.7,5.5c-5,2.8-8.8,3.8-14.6,3.8c-4.6,0.1-5.3-1.9-8.6-1.2c-1.8,0.4-2,2-4.5,1.9
			c-3.5-0.1-8.2-2.8-7.6-5.3l1.3-4.9l7.8-0.4c0.6-2.5,0.9-3.7,1.3-6.8c0.3-2.2,0.4-3.9,0.5-6.3l0.6-21.7c0-0.1,0.4-5.5,2.2-8.2
			c1.9-3,4-5.2,7.6-5.3c1.8-0.1,3,0.2,4.5,1.1c0.2-0.1,3.1-0.9,5-0.6c1.9,0.2,4.5,1.7,4.7,1.9c-0.2,2.7-0.2,4.4,0,7.1
			c0.2,3,1.1,4.8,1.4,7.8c0.1,1.8-0.3,3-0.9,4.3c-0.6,1.6-0.8,2.5-2.4,2.8c-2.2,0.4-4.2,0.3-5.5-1.5l-1.9-16c-0.1-1-0.9-1.7-2-1.8
			c-1.7-0.2-3.1,7.5-3.1,12.5v17.3c0,3.2,0.2,5.2-0.9,8.1c-0.7,1.9-1.4,3-2.5,4.5c1.3,0,2.2,0.1,3.6,0.2c2.1,0.1,3.4,0.9,5.5,0.6
			c3.5-0.4,5.8-1.7,7.8-4.5c-0.1-0.2,0.9-3,2.3-2.8c1.3,0.1,2.2,1.5,1.9,2.8C159.5,47.4,158.3,50.1,157.8,52z"/>
		<path class="st3" d="M191.7,53.1c-0.7,1.3-5.3,6.6-8.9,6.5c-4.2-0.1-6-5.3-6-5.5c0,0.3-3.9,8.1-8.4,8.1c-5.7,0-7.8-7.8-7.3-12.8
			c0.5-4.5,1.2-12.4,1.2-13V27c0.4-0.9,1.3-1.5,2.3-1.6c0.8-0.1,1.2,0.4,2,0.4c1-0.1,1.5-1,2.5-0.9c1.7,0.1,3.2,2.8,3.3,3.1
			c0,0.1-2.1,11.6-2.7,16.7c-0.4,3.7-0.9,9.8,1.4,9.7c3.7-0.3,4.2-8.5,4.8-14.8c0.4-4,0.4-6.5-0.1-10.5c0.4-0.9,0.9-1.6,1.9-2
			c1.3-0.6,2.3,0.7,3.8,0.7c1,0,1.7-0.1,2.7-0.4l1.7,4.2c-0.1,0.2-1.6,7.5-2,12.3c-0.3,3.5-0.8,9.6,2.8,9c1.4-0.2,4.6-5.5,5-6.3
			c0.5-0.5,1.1-0.5,1,0.4c-0.1,1.5,0,2,0.1,4.2C192.9,52,192.2,52.5,191.7,53.1z"/>
		<path class="st3" d="M218.4,53.1c-0.8,1.2-6,8.4-10.7,8.1c-6.4-0.4-7.9-6.4-7.6-12.5c0.3-4.8,1.9-11.9,2-12
			c-0.7-0.4-1.4-0.4-2.2-0.2c-0.7,0.2-1.2,0.6-1.7,1.3c-0.2,3-0.5,4.4-1.5,7.1c-1.1,3-2.4,5.6-5,8.3c-1.2,1.1-1.8,0.4-1.6-0.8
			c0.4-1.4,0.3-2,0.4-3.6c0.1-0.9,0.2-1,1.2-2.2c0.6-2.4,0.8-2.6,1.2-5.2c0.3-1.9,0.5-4.1,0.6-4.4c-0.4-0.8-0.4-1.4-0.9-2.2
			c-0.6-1.3-0.6-8,0.1-11.2c0.4-1.5,1.8-2.1,3.3-2.2c1.8-0.1,3.2,0.7,4,2.4l-1.4,4c0.6,1,0.5,1.7,2.5,1.7c2,0,4-3.2,4-3.5
			c0.9,0.1,1.6,0.4,2.4,0.9c0.5,0.4,0.7,0.9,1.2,1.2c1.2,0.9,2.7,0,3.6,1.1c1.4,1.7-1.4,3.3-1.8,5.5c-1.4,7.5-3.6,18.6,0.6,18.4
			c3.5-0.1,6.2-5.3,7.2-6.4c0.9-0.6,1.2-0.4,1.1,0.7c-0.1,1.9-0.1,2.2,0,4.1C219.5,52.2,218.9,52.6,218.4,53.1z"/>
		<path class="st3" d="M245.9,53.1c-0.6,0.4-2.4,2.1-4.8,2.1c-1.6,0-3.5-1-3.9-1.3c-0.1,0.5-3.1,7.8-9.4,7.6c-6.8-0.1-9.6-6-9.4-13
			c0.2-7.6,1.4-11.7,3.2-18.9c0.4-1.4-0.1-3.2,1.2-3.8c0.9-0.4,1.5,0,2.5,0h5c1.3-1,2.4-1.6,4-1.6c4.5-0.1,6.3,6.6,6.2,11.6
			c-0.1,6.4-1.4,13.1-1.7,13.6c0.7,0.9,1.6,1.4,2.7,1.4c1.8,0.1,3.9-3.6,4.3-4.2c0.6-0.7,1.2-0.4,1.1,0.8c-0.1,1.2,0,2.2,0.1,3.5
			C247.2,51.8,246.5,52.5,245.9,53.1z M230.9,42.1c-0.6-3.7-0.7-9.7-0.7-9.7s-2.6,2.2-2.9,13.8c-0.1,4,0.3,10.3,2.9,10.1
			c2-0.1,3.9-5.1,3.9-5.3C234.1,50.8,231.9,47.8,230.9,42.1z M236.1,35.5c-0.1,0.1-1.4-1.7-1.2,2.2c0.1,3.2,1,4.2,1.1,4.2
			c0-0.1,0.4-2.1,0.4-3.5C236.4,37.3,236.2,35.7,236.1,35.5z"/>
		<path class="st3" d="M276.5,53.1c-0.5,0.6-4.9,6.4-9.6,6.6c-4.5,0.1-6.9-3.1-6.9-6.8v-7.6c-0.1,0.1-1.7,2.1-3.7,6.8
			c-1.2,3-1.7,4.6-1.7,6.2c0,1.1,0.7,1.9,0.1,2.9c-0.6,0.9-2.5,1.9-3.5,1.6c-1.6-0.4-5.4-2.3-5.4-5.2l0.9-27.4
			c-0.4-0.9,0.7-3,1.9-3.5c0.8-0.4,1.3,0.6,2.2,0.7c1.3,0.1,2.1-1.4,3.2-0.8c0.6,0.4,2.9,3.3,2.9,3.8c0,0.1-1.2,2.4-1.6,4.5
			c-0.9,5.2-1.2,11.7-1.2,12c0,0,1.9-0.8,6-13.8c0.7-2.3,0.7-3.8,0.8-6.1c0,0,3.9-3.5,6.2-2.9c0.9,0.1,1.4,0.7,1.8,1.5
			c0.7,0,1.2,0.1,1.7,0.5c0.7,0.5,1.1,1.2,1.1,2c-0.1,0.1-3.9,12.1-4.2,18.4c0,2.4,0.8,6,3,5.6c1.9-0.4,5.6-4.6,6.2-5.4
			c0.6-0.5,1.4-0.5,1.4,0.6c0,1.8-0.2,2.2,0,3.6C278.1,51.7,277.3,52.6,276.5,53.1z"/>
	</g>
</g>
</svg>
