<?xml version="1.0" encoding="utf-8"?>
<!-- Generator: Adobe Illustrator 21.1.0, SVG Export Plug-In . SVG Version: 6.00 Build 0)  -->
<svg version="1.1" id="Layer_1" xmlns="http://www.w3.org/2000/svg" xmlns:xlink="http://www.w3.org/1999/xlink" x="0px" y="0px"
	 viewBox="0 0 420 170" style="enable-background:new 0 0 420 170;" xml:space="preserve">
<style type="text/css">
	.st0{fill:#ED2224;}
	.st1{fill:#FFFFFF;}
	.st2{fill:#FFFFFF;stroke:#010101;stroke-width:0.2835;stroke-miterlimit:10;}
</style>
<g>
	<path class="st0" d="M151.9,12.3l6.3,15.7l6.4-15.7h3.7l-10.2,24.4l-10-24.4H151.9z"/>
	<path class="st0" d="M170.5,14.7c0-0.6,0.2-1.1,0.6-1.5c0.4-0.4,0.9-0.6,1.5-0.6c0.6,0,1.1,0.2,1.5,0.6c0.4,0.4,0.6,0.9,0.6,1.5
		c0,0.6-0.2,1.1-0.6,1.5c-0.4,0.4-0.9,0.6-1.5,0.6s-1.1-0.2-1.5-0.6C170.8,15.9,170.5,15.3,170.5,14.7z M174.3,20.7V35H171V20.7
		H174.3z"/>
	<path class="st0" d="M187.2,23.1l-2.7,1.5c-0.4-0.9-1-1.3-1.6-1.3c-0.3,0-0.6,0.1-0.8,0.3c-0.2,0.2-0.3,0.5-0.3,0.8
		c0,0.5,0.6,1.1,1.9,1.6c1.8,0.8,2.9,1.5,3.5,2.1c0.6,0.6,0.9,1.5,0.9,2.6c0,1.4-0.5,2.5-1.5,3.5c-1,0.9-2.2,1.3-3.6,1.3
		c-2.4,0-4.1-1.2-5.1-3.5l2.8-1.3c0.4,0.7,0.7,1.1,0.9,1.3c0.4,0.4,0.9,0.6,1.4,0.6c1.1,0,1.7-0.5,1.7-1.5c0-0.6-0.4-1.1-1.3-1.6
		c-0.3-0.2-0.7-0.3-1-0.5c-0.3-0.2-0.7-0.3-1-0.5c-1-0.5-1.6-0.9-2-1.4c-0.5-0.6-0.7-1.4-0.7-2.3c0-1.2,0.4-2.3,1.3-3.1
		c0.9-0.8,1.9-1.2,3.2-1.2C184.9,20.3,186.3,21.2,187.2,23.1z"/>
	<path class="st0" d="M190.9,14.7c0-0.6,0.2-1.1,0.6-1.5c0.4-0.4,0.9-0.6,1.5-0.6c0.6,0,1.1,0.2,1.5,0.6c0.4,0.4,0.6,0.9,0.6,1.5
		c0,0.6-0.2,1.1-0.6,1.5c-0.4,0.4-0.9,0.6-1.5,0.6s-1.1-0.2-1.5-0.6C191.1,15.9,190.9,15.3,190.9,14.7z M194.7,20.7V35h-3.3V20.7
		H194.7z"/>
	<path class="st0" d="M202.5,10.2v12.2c1.3-1.4,2.8-2.1,4.5-2.1c1.9,0,3.5,0.7,4.8,2.2c1.3,1.4,1.9,3.2,1.9,5.4c0,2.2-0.6,4-1.9,5.5
		c-1.3,1.4-2.9,2.1-4.9,2.1c-1.7,0-3.1-0.6-4.4-1.9V35h-3.3V10.2H202.5z M210.3,27.9c0-1.4-0.4-2.5-1.1-3.4
		c-0.8-0.9-1.7-1.3-2.8-1.3c-1.2,0-2.2,0.4-3,1.3c-0.8,0.8-1.1,1.9-1.1,3.3c0,1.4,0.4,2.5,1.1,3.3c0.7,0.9,1.7,1.3,2.9,1.3
		c1.1,0,2.1-0.4,2.9-1.3C209.9,30.3,210.3,29.2,210.3,27.9z"/>
	<path class="st0" d="M217,14.7c0-0.6,0.2-1.1,0.6-1.5c0.4-0.4,0.9-0.6,1.5-0.6c0.6,0,1.1,0.2,1.5,0.6c0.4,0.4,0.6,0.9,0.6,1.5
		c0,0.6-0.2,1.1-0.6,1.5c-0.4,0.4-0.9,0.6-1.5,0.6s-1.1-0.2-1.5-0.6C217.2,15.9,217,15.3,217,14.7z M220.8,20.7V35h-3.3V20.7H220.8z
		"/>
	<path class="st0" d="M228.6,10.2V35h-3.3V10.2H228.6z"/>
	<path class="st0" d="M232.6,14.7c0-0.6,0.2-1.1,0.6-1.5c0.4-0.4,0.9-0.6,1.5-0.6c0.6,0,1.1,0.2,1.5,0.6c0.4,0.4,0.6,0.9,0.6,1.5
		c0,0.6-0.2,1.1-0.6,1.5c-0.4,0.4-0.9,0.6-1.5,0.6s-1.1-0.2-1.5-0.6C232.8,15.9,232.6,15.3,232.6,14.7z M236.4,20.7V35h-3.3V20.7
		H236.4z"/>
	<path class="st0" d="M244.3,23.8V35H241V23.8h-1.4v-3.1h1.4v-5.2h3.3v5.2h2.6v3.1H244.3z"/>
	<path class="st0" d="M262.7,28.6h-10.3c0.1,1.2,0.5,2.1,1.1,2.8c0.7,0.7,1.5,1,2.6,1c0.8,0,1.5-0.2,2-0.6c0.5-0.4,1.1-1.1,1.8-2.2
		l2.8,1.6c-0.4,0.7-0.9,1.4-1.4,1.9c-0.5,0.5-1,1-1.5,1.3s-1.1,0.6-1.8,0.7c-0.6,0.2-1.3,0.2-2.1,0.2c-2.1,0-3.9-0.7-5.1-2.1
		c-1.3-1.4-1.9-3.2-1.9-5.5c0-2.3,0.6-4.1,1.9-5.5c1.3-1.4,2.9-2.1,5-2.1c2.1,0,3.8,0.7,5,2c1.2,1.3,1.8,3.2,1.8,5.5L262.7,28.6z
		 M259.3,25.9c-0.5-1.8-1.6-2.6-3.3-2.6c-0.4,0-0.8,0.1-1.1,0.2c-0.4,0.1-0.7,0.3-1,0.5c-0.3,0.2-0.5,0.5-0.7,0.8
		c-0.2,0.3-0.4,0.7-0.5,1.1H259.3z M260.9,13.6l-5.4,4.9l-1.8-1.1l4-5.4L260.9,13.6z"/>
	<path class="st1" d="M283.5,23l-1.2,0.6c-0.2-0.5-0.5-0.9-1-1.1c-0.4-0.3-0.9-0.4-1.5-0.4c-0.6,0-1.1,0.2-1.6,0.6
		c-0.5,0.4-0.7,0.9-0.7,1.5c0,0.7,0.2,1.2,0.7,1.5c0.5,0.3,1.3,0.7,2.5,1.1c1.2,0.4,2.1,1,2.7,1.5c0.6,0.6,0.9,1.4,0.9,2.6
		c0,0.8-0.2,1.6-0.6,2.2c-0.4,0.7-0.9,1.2-1.6,1.6c-0.7,0.4-1.4,0.6-2.3,0.6c-1.2,0-2.2-0.3-3.1-1c-0.9-0.7-1.4-1.6-1.7-2.7l1.3-0.4
		c0.6,1.9,1.7,2.8,3.5,2.8c0.9,0,1.6-0.3,2.2-0.9c0.6-0.6,0.9-1.3,0.9-2.2c0-0.8-0.2-1.3-0.7-1.7c-0.5-0.4-1.1-0.7-2-1
		c-0.8-0.3-1.5-0.6-2.1-0.9s-1-0.7-1.4-1.2c-0.4-0.5-0.6-1.1-0.6-1.8c0-1,0.4-1.9,1.1-2.5c0.7-0.7,1.6-1,2.7-1
		c0.5,0,0.9,0.1,1.4,0.3c0.5,0.2,0.9,0.5,1.3,0.8C283,22.2,283.3,22.6,283.5,23z"/>
	<path class="st1" d="M296.5,21.1h1.4v8.3c0,0.9,0,1.7-0.1,2.3c-0.1,0.6-0.3,1.2-0.7,1.7c-0.5,0.6-1.1,1.1-1.8,1.4s-1.5,0.5-2.3,0.5
		c-0.8,0-1.6-0.2-2.3-0.5c-0.8-0.3-1.4-0.8-1.8-1.4c-0.3-0.4-0.4-0.7-0.6-1.2c-0.1-0.4-0.2-0.8-0.2-1.3s0-0.9,0-1.6v-8.3h1.4V29
		c0,0.8,0,1.4,0.1,2c0.1,0.6,0.2,1.1,0.5,1.6c0.2,0.5,0.6,0.8,1.1,1.1c0.5,0.3,1.1,0.4,1.9,0.4c1.5,0,2.5-0.4,3-1.3s0.7-2.1,0.7-3.8
		V21.1z"/>
	<path class="st1" d="M304,21.1v1.8h0.1c0.6-1.4,1.6-2.1,3-2.1c0.5,0,1,0.1,1.5,0.3l-0.7,1.2c-0.3-0.2-0.6-0.3-1-0.3
		c-0.8,0-1.5,0.3-1.9,0.8s-0.7,1.1-0.8,1.9c-0.1,0.7-0.2,1.6-0.2,2.5v0.7V35h-1.4V21.1H304z"/>
	<path class="st1" d="M322.3,10.2V35h-1.4V10.2H322.3z"/>
	<path class="st1" d="M339.3,28.2h-12.1c0,1.2,0.2,2.2,0.7,3.1c0.5,0.9,1.2,1.6,2,2.1c0.8,0.5,1.8,0.7,2.8,0.7c1.1,0,2-0.3,2.9-0.9
		s1.5-1.3,2-2.3l1.1,0.7c-0.6,1.2-1.5,2.1-2.6,2.8c-1.1,0.7-2.3,1-3.7,1c-1.3,0-2.5-0.3-3.5-1c-1-0.7-1.8-1.5-2.4-2.7
		s-0.8-2.3-0.8-3.6c0-1.3,0.3-2.5,0.8-3.6c0.6-1.1,1.4-2,2.4-2.6c1-0.7,2.2-1,3.5-1c1.4,0,2.5,0.3,3.6,1s1.8,1.6,2.3,2.7
		C339,25.6,339.3,26.8,339.3,28.2z M327.2,26.9h10.7c-0.1-0.9-0.4-1.7-0.9-2.4c-0.5-0.7-1.1-1.3-1.9-1.8c-0.8-0.4-1.6-0.7-2.5-0.7
		c-0.9,0-1.8,0.2-2.6,0.7s-1.5,1-2,1.8S327.3,26,327.2,26.9z"/>
	<path class="st1" d="M351.7,21.1l4.9,11.4l4.9-12.2l4.9,12.2l4.8-11.4h1.4l-6.3,14.7l-4.9-12l-4.9,12l-6.3-14.7H351.7z"/>
	<path class="st1" d="M387.5,28.2h-12.1c0,1.2,0.2,2.2,0.7,3.1c0.5,0.9,1.2,1.6,2,2.1C379,33.8,380,34,381,34c1.1,0,2-0.3,2.9-0.9
		c0.9-0.6,1.5-1.3,2-2.3l1.1,0.7c-0.6,1.2-1.5,2.1-2.6,2.8c-1.1,0.7-2.3,1-3.7,1c-1.3,0-2.5-0.3-3.5-1c-1-0.7-1.8-1.5-2.4-2.7
		c-0.6-1.1-0.8-2.3-0.8-3.6c0-1.3,0.3-2.5,0.8-3.6s1.4-2,2.4-2.6c1-0.7,2.2-1,3.5-1c1.4,0,2.5,0.3,3.6,1c1,0.7,1.8,1.6,2.3,2.7
		C387.2,25.6,387.5,26.8,387.5,28.2z M375.4,26.9h10.7c-0.1-0.9-0.4-1.7-0.9-2.4c-0.5-0.7-1.1-1.3-1.9-1.8c-0.8-0.4-1.6-0.7-2.5-0.7
		s-1.8,0.2-2.6,0.7s-1.5,1-2,1.8C375.8,25.2,375.5,26,375.4,26.9z"/>
	<path class="st1" d="M391.1,35V10.2h1.4v13.3h0.1c0.6-0.9,1.3-1.5,2.3-2c1-0.5,2-0.7,3.1-0.7c1.3,0,2.5,0.3,3.6,0.9
		c1,0.6,1.8,1.5,2.4,2.6c0.6,1.1,0.8,2.3,0.8,3.7c0,1.3-0.3,2.6-0.8,3.7c-0.6,1.1-1.4,2-2.4,2.7c-1,0.6-2.2,1-3.6,1
		c-1.1,0-2.1-0.3-3.1-0.8c-1-0.5-1.7-1.2-2.2-2h-0.1V35H391.1z M397.8,34c1.1,0,2.1-0.3,2.9-0.8c0.8-0.6,1.5-1.3,1.9-2.2
		c0.4-0.9,0.7-1.9,0.7-3c0-0.8-0.1-1.5-0.4-2.2s-0.6-1.3-1.1-1.9c-0.5-0.6-1.1-1-1.7-1.3c-0.7-0.3-1.4-0.5-2.2-0.5
		c-1.1,0-2.1,0.3-3,0.8c-0.8,0.5-1.5,1.2-1.9,2.1c-0.4,0.9-0.7,1.9-0.7,3c0,1.1,0.2,2.1,0.7,3c0.4,0.9,1.1,1.7,1.9,2.2
		S396.7,34,397.8,34z"/>
</g>
<g>
	<path class="st0" d="M17.8,53.2l30.3,87h0.3l30.1-87h6.5l-37,105.2L11.3,53.2H17.8z"/>
	<path class="st0" d="M104.3,53.2V155h-6.5V53.2H104.3z"/>
	<path class="st1" d="M124.7,53.2l28.6,87.5L191.5,48l38.1,92.7l28.2-87.5h6.5L230,158.4l-38.9-94.2l-38.8,94.2l-34-105.2H124.7z"/>
	<path class="st1" d="M326.8,59.2h-42.1v37h41.1v6.1h-41.1v46.6h42.1v6.1h-48.6V53.2h48.6V59.2z"/>
	<path class="st1" d="M374.1,155H348V53.2h20.4c4.7,0,8.7,0.4,12,1.1c3.3,0.8,6.3,2.4,9.1,4.8C395.2,64,398,71,398,80.2
		c0,9.4-3.9,16.3-11.7,20.8c4.1,0.8,7.8,2.5,11,4.9c3.2,2.4,5.7,5.4,7.5,9c1.8,3.6,2.6,7.5,2.6,11.8c0,8.7-3.2,15.7-9.5,21.1
		c-3.3,2.8-6.8,4.7-10.6,5.7S379.2,155,374.1,155z M354.5,59.2v40.1h11.2h3.3c3.3,0,6-0.2,8.3-0.7c2.3-0.5,4.5-1.5,6.6-3.1
		c2.8-2.1,4.8-4.4,5.9-6.9c1.1-2.6,1.7-5.7,1.7-9.4c0-3.5-0.7-6.7-2.1-9.7c-1.4-2.9-3.5-5.3-6.3-7.1c-2.3-1.5-4.8-2.4-7.4-2.7
		c-2.6-0.4-6-0.5-10-0.5H354.5z M354.5,105.4v43.5H370c4.8,0,8.8-0.2,12-0.7s6.1-1.5,8.9-3.3c6.7-4.5,10-10.5,10-18.1
		c0-3.9-0.9-7.5-2.8-10.8c-1.8-3.3-4.4-5.8-7.8-7.4c-4.3-2.2-11.5-3.2-21.5-3.2H354.5z"/>
</g>
<line class="st2" x1="10" y1="46" x2="407" y2="46"/>
<line class="st2" x1="10" y1="162" x2="407" y2="162"/>
</svg>
